<svg width="98" height="50" viewBox="0 0 98 50" fill="none" xmlns="http://www.w3.org/2000/svg">
<path d="M11.7598 32.6309H7.55859V42H2.28516V16.4062H11.7949C14.8184 16.4062 17.1504 17.0801 18.791 18.4277C20.4316 19.7754 21.252 21.6797 21.252 24.1406C21.252 25.8867 20.8711 27.3457 20.1094 28.5176C19.3594 29.6777 18.2168 30.6035 16.6816 31.2949L22.2188 41.7539V42H16.5586L11.7598 32.6309ZM7.55859 28.3594H11.8125C13.1367 28.3594 14.1621 28.0254 14.8887 27.3574C15.6152 26.6777 15.9785 25.7461 15.9785 24.5625C15.9785 23.3555 15.6328 22.4062 14.9414 21.7148C14.2617 21.0234 13.2129 20.6777 11.7949 20.6777H7.55859V28.3594Z" fill="white"/>
<path d="M97.4658 33.4746C97.2665 36.2285 96.247 38.3965 94.4072 39.9785C92.579 41.5605 90.165 42.3516 87.165 42.3516C83.8837 42.3516 81.2997 41.25 79.413 39.0469C77.538 36.832 76.6005 33.7969 76.6005 29.9414V28.377C76.6005 25.916 77.0341 23.748 77.9013 21.873C78.7685 19.998 80.0048 18.5625 81.6103 17.5664C83.2275 16.5586 85.1025 16.0547 87.2353 16.0547C90.1884 16.0547 92.5673 16.8457 94.372 18.4277C96.1767 20.0098 97.2197 22.2305 97.5009 25.0898H92.2275C92.0986 23.4375 91.6357 22.2422 90.8388 21.5039C90.0536 20.7539 88.8525 20.3789 87.2353 20.3789C85.4775 20.3789 84.1591 21.0117 83.2802 22.2773C82.413 23.5312 81.9677 25.4824 81.9443 28.1309V30.0645C81.9443 32.8301 82.3603 34.8516 83.1923 36.1289C84.0361 37.4062 85.3603 38.0449 87.165 38.0449C88.7939 38.0449 90.0068 37.6758 90.8036 36.9375C91.6122 36.1875 92.0751 35.0332 92.1923 33.4746H97.4658Z" fill="white"/>
<path d="M48.4795 0.000349704C43.6343 -0.0208652 38.953 0.933747 34.4356 2.85357C29.9285 4.7734 25.9028 7.52056 22.379 11.095C22.1229 11.3602 22 11.6784 22 12.0603C22 12.4315 22.1229 12.7603 22.379 13.0149L25.9642 16.8757C26.2101 17.1303 26.5072 17.2576 26.8452 17.2576C27.1832 17.2576 27.47 17.1303 27.7159 16.8757C29.1192 15.4863 30.6353 14.2453 32.2538 13.1528C33.8722 12.0709 35.5624 11.1481 37.3448 10.4056C39.1169 9.65252 40.9505 9.09037 42.8251 8.70852C44.6997 8.32668 46.5947 8.13575 48.5 8.13575C50.4053 8.13575 52.3003 8.32668 54.1749 8.70852C56.0495 9.09037 57.8831 9.65252 59.6552 10.4056C61.4376 11.1481 63.1278 12.0709 64.7462 13.1528C66.3647 14.2453 67.8808 15.4863 69.2841 16.8757C69.53 17.1303 69.8168 17.2576 70.1548 17.2576C70.4929 17.2576 70.7899 17.1303 71.0358 16.8757L74.621 13.0149C74.8771 12.7603 75 12.4315 75 12.0603C75 11.6784 74.8771 11.3602 74.621 11.095C71.087 7.50996 67.0613 4.7628 62.5439 2.84297C58.0265 0.923141 53.3349 -0.0208652 48.4795 0.000349704Z" fill="#F5AA1B"/>
<path d="M59.0427 29.5961L62.6231 25.7236C62.8875 25.4478 63.0096 25.1189 62.9994 24.7263C62.9994 24.3338 62.857 24.0049 62.5824 23.7397C61.6161 22.8273 60.5888 22.0103 59.4801 21.2889C58.3816 20.5781 57.2322 19.9733 56.032 19.4853C54.8317 18.9973 53.601 18.626 52.3296 18.3713C51.0683 18.1273 49.7969 18 48.5153 18C47.2337 18 45.952 18.1273 44.6908 18.3713C43.4295 18.626 42.1988 18.9973 40.9986 19.4853C39.7983 19.9733 38.6388 20.5781 37.5403 21.2889C36.4417 22.0103 35.4042 22.8273 34.4481 23.7397C34.1633 23.9943 34.0209 24.3232 34.0006 24.7157C33.9904 25.1083 34.1125 25.4478 34.3668 25.7236L37.9471 29.5961C38.1709 29.8401 38.4353 29.978 38.7608 29.9992C39.0761 30.0098 39.3609 29.9143 39.6051 29.6915C40.846 28.5457 42.2395 27.6651 43.7652 27.0604C45.3011 26.4557 46.8777 26.148 48.5153 26.148C50.1427 26.148 51.7294 26.4557 53.2552 27.0604C54.791 27.6651 56.1744 28.5457 57.4153 29.6915C57.6594 29.8931 57.9442 29.9886 58.2493 29.978C58.5647 29.9568 58.8291 29.8295 59.0427 29.5961Z" fill="#F5AA1B"/>
<path d="M48.4794 34.5149C47.3629 34.5149 46.3283 34.8119 45.3654 35.4165C45.0171 35.6499 44.8225 35.9787 44.7713 36.4136C44.7201 36.8484 44.843 37.2197 45.1298 37.5273L47.5985 40.1896C47.8443 40.4442 48.1414 40.5714 48.4794 40.5714C48.8277 40.5714 49.1145 40.4442 49.3604 40.1896L51.8291 37.5273C52.1159 37.2197 52.2388 36.8484 52.1876 36.4136C52.1364 35.9787 51.9417 35.6499 51.5935 35.4165C50.6306 34.8119 49.596 34.5149 48.4794 34.5149Z" fill="#F5AA1B"/>
</svg>
