<svg width="1138" height="878" viewBox="0 0 1138 878" fill="none" xmlns="http://www.w3.org/2000/svg">
<path d="M1156 -233H0V878H1156V-233Z" fill="white"/>
<path d="M1156 -233H0V878H1156V-233Z" fill="white"/>
<path d="M578.181 292.862C594.798 292.862 608.261 279.97 608.261 264.045C608.261 248.132 594.798 235.229 578.181 235.229C561.563 235.229 548.088 248.132 548.088 264.045C548.088 279.97 561.563 292.862 578.181 292.862Z" fill="#F5AA1B"/>
<path d="M565.031 481.442H675.068C692.203 481.442 700.789 463.423 688.699 452.857L618.532 415.407V334.605L657.896 369.231C660.377 371.419 663.592 372.576 666.855 372.576C668.361 372.576 669.878 372.333 671.335 371.824L728.75 352.092C735.637 349.719 739.226 342.452 736.745 335.855C734.277 329.247 726.691 325.821 719.803 328.194L669.914 345.345L632.958 312.813C628.599 307.779 623.927 306.425 623.927 306.425C614.595 302.467 597.604 299.805 578.181 299.805C558.757 299.805 541.755 302.467 532.422 306.425C532.422 306.425 527.762 307.779 523.403 312.813L486.435 345.345L436.558 328.194C429.671 325.821 422.084 329.247 419.604 335.855C417.135 342.452 420.712 349.719 427.599 352.092L485.026 371.824C486.483 372.333 488 372.576 489.494 372.576C492.769 372.576 495.984 371.419 498.465 369.231L537.817 334.605V415.407L467.662 452.857C455.56 463.423 464.158 481.442 481.281 481.442H573.003C578.253 480.158 582.407 473.503 582.407 465.761C582.407 457.139 577.253 449.848 571.16 449.848H526.558L565.031 481.442Z" fill="#F5AA1B"/>
<path d="M578.181 239.893C564.26 239.893 552.953 250.725 552.953 264.045C552.953 277.377 564.26 288.209 578.181 288.209C592.089 288.209 603.408 277.377 603.408 264.045C603.408 250.725 592.089 239.893 578.181 239.893ZM578.181 297.514C558.914 297.514 543.236 282.504 543.236 264.045C543.236 245.598 558.914 230.576 578.181 230.576C597.447 230.576 613.114 245.598 613.114 264.045C613.114 282.504 597.447 297.514 578.181 297.514Z" fill="#1A323D"/>
<path d="M584.743 476.79H675.068C681.33 476.79 686.676 473.55 688.699 468.539C690.397 464.349 689.313 459.928 685.797 456.642L613.68 418.139V324.016L661.172 365.806C662.725 367.171 664.748 367.924 666.856 367.924C667.819 367.924 668.782 367.762 669.685 367.449L727.112 347.706C731.471 346.201 733.735 341.595 732.17 337.418C731.411 335.404 729.882 333.784 727.859 332.869C725.824 331.955 723.548 331.851 721.44 332.568L668.794 350.669L629.43 316.031L629.213 315.788C626.01 312.084 622.747 310.95 622.482 310.869L622.229 310.788L621.964 310.684C612.933 306.842 596.159 304.458 578.181 304.458C560.202 304.458 543.416 306.842 534.397 310.684L534.132 310.788L533.879 310.858C533.627 310.95 530.351 312.073 527.148 315.788L526.931 316.031L526.691 316.239L487.555 350.669L434.921 332.568C430.562 331.076 425.745 333.251 424.18 337.418C422.614 341.595 424.89 346.201 429.249 347.706L486.664 367.449C487.579 367.762 488.53 367.924 489.494 367.924C491.613 367.924 493.624 367.171 495.177 365.806L542.682 324.016V418.139L470.552 456.642C467.048 459.928 465.952 464.349 467.65 468.539C469.673 473.55 475.032 476.79 481.281 476.79H572.244C574.881 475.749 577.542 471.281 577.542 465.761C577.542 459.523 574.05 454.501 571.16 454.501H526.558C523.873 454.501 521.693 452.418 521.693 449.848C521.693 447.279 523.873 445.196 526.558 445.196H571.16C580.047 445.196 587.26 454.42 587.26 465.761C587.26 469.788 586.345 473.573 584.743 476.79ZM675.068 486.095H481.281C470.986 486.095 462.075 480.517 458.595 471.895C455.38 463.956 457.595 455.345 464.387 449.42L464.796 449.061L532.964 412.676V345.206L501.752 372.657C498.405 375.608 494.046 377.228 489.494 377.228C487.411 377.228 485.351 376.893 483.377 376.21L425.962 356.467C416.557 353.238 411.656 343.273 415.04 334.281C418.412 325.278 428.804 320.579 438.196 323.808L485.315 340.01L519.887 309.596C524.415 304.469 529.279 302.548 530.664 302.085C541.032 297.746 558.77 295.153 578.181 295.153C597.592 295.153 615.317 297.746 625.685 302.085C627.082 302.548 631.935 304.469 636.474 309.596L671.046 340.01L718.153 323.808C722.705 322.245 727.63 322.465 732.001 324.456C736.372 326.423 739.684 329.918 741.321 334.281C744.693 343.273 739.792 353.238 730.387 356.467L672.973 376.21C670.998 376.893 668.951 377.228 666.856 377.228C662.304 377.228 657.957 375.608 654.609 372.657L623.397 345.206V412.676L691.553 449.061L691.962 449.42C698.754 455.345 700.982 463.956 697.766 471.895C694.274 480.517 685.376 486.095 675.068 486.095Z" fill="#1A323D"/>
<path d="M493.528 241.247L482.221 237.728C482.413 235.877 482.51 234.014 482.51 232.127C482.51 230.229 482.413 228.366 482.221 226.514L493.528 222.996C495.599 222.348 496.743 220.195 496.069 218.217L490.903 202.952C490.228 200.973 487.977 199.873 485.905 200.522L474.598 204.051C472.623 200.799 470.311 197.767 467.71 194.978L474.707 185.754C475.983 184.065 475.598 181.692 473.828 180.466L460.281 171.034C458.523 169.807 456.03 170.177 454.754 171.867L447.757 181.079C444.217 179.586 440.496 178.417 436.631 177.619V166.231C436.631 164.148 434.849 162.435 432.669 162.435H415.919C413.74 162.435 411.958 164.148 411.958 166.231V177.619C408.092 178.417 404.371 179.586 400.831 181.079L393.835 171.867C392.558 170.177 390.066 169.807 388.308 171.034L374.761 180.466C372.991 181.692 372.605 184.065 373.882 185.754L380.878 194.978C378.277 197.767 375.965 200.799 373.99 204.051L362.683 200.522C360.612 199.873 358.36 200.973 357.698 202.952L352.52 218.217C351.846 220.195 352.989 222.348 355.061 222.996L366.368 226.514C366.175 228.366 366.079 230.229 366.079 232.127C366.079 234.014 366.175 235.877 366.368 237.728L355.061 241.247C352.989 241.895 351.846 244.036 352.52 246.026L357.698 261.291C358.36 263.27 360.612 264.369 362.683 263.721L373.99 260.203C375.965 263.443 378.277 266.476 380.878 269.265L373.882 278.488C372.605 280.166 372.991 282.562 374.761 283.777L388.308 293.209C390.066 294.436 392.558 294.065 393.835 292.376L400.831 283.164C404.371 284.657 408.092 285.826 411.958 286.624V298.012C411.958 300.095 413.74 301.808 415.919 301.808H432.669C434.849 301.808 436.631 300.095 436.631 298.012V286.624C440.496 285.826 444.217 284.657 447.757 283.164L454.754 292.376C456.03 294.065 458.523 294.436 460.281 293.209L473.828 283.777C475.598 282.562 475.983 280.166 474.707 278.488L467.71 269.265C470.311 266.476 472.623 263.443 474.598 260.203L485.905 263.721C487.977 264.369 490.228 263.27 490.903 261.291L496.069 246.026C496.743 244.036 495.599 241.895 493.528 241.247Z" fill="#2A97BD"/>
<path d="M424.288 192.814C434.427 192.814 442.64 200.684 442.64 210.382C442.64 220.08 434.427 227.949 424.288 227.949C414.161 227.949 405.949 220.08 405.949 210.382C405.949 200.684 414.161 192.814 424.288 192.814Z" fill="white"/>
<path d="M385.598 255.759L388.597 245.019C388.705 244.637 388.849 244.279 389.006 243.931C389.114 242.878 389.512 241.906 390.126 241.085C390.138 241.073 390.138 241.05 390.15 241.038C392.992 237.196 396.4 236.212 396.4 236.212C402.095 233.794 412.451 232.185 424.288 232.185C436.137 232.185 446.493 233.794 452.189 236.212C452.189 236.212 455.596 237.196 458.438 241.038C458.45 241.05 458.45 241.073 458.462 241.085C459.076 241.906 459.474 242.878 459.582 243.931C459.739 244.279 459.883 244.637 459.992 245.019L462.99 255.759H385.598Z" fill="white"/>
<path d="M770.39 170.675C754.423 170.675 741.056 179.632 737.612 193.45C737.01 193.462 736.432 193.416 735.854 193.312C732.35 179.574 719.02 170.675 703.101 170.675C684.521 170.675 669.469 185.095 669.469 202.894C669.469 237.242 711.663 279.345 729.219 295.385C733.434 299.238 740.057 299.238 744.271 295.385C761.84 279.345 804.034 237.242 804.034 202.894C804.034 185.095 788.97 170.675 770.39 170.675Z" fill="#FB0000"/>
<path d="M617.485 83.3573C617.485 104.212 578.193 163.615 578.193 163.615C578.193 163.615 538.889 104.212 538.889 83.3573C538.889 62.5029 556.482 45.5948 578.193 45.5948C599.892 45.5948 617.485 62.5029 617.485 83.3573Z" fill="#CD40B6"/>
<path d="M598.158 82.9407C598.158 93.5415 589.223 102.129 578.193 102.129C567.163 102.129 558.216 93.5415 558.216 82.9407C558.216 72.3399 567.163 63.7528 578.193 63.7528C589.223 63.7528 598.158 72.3399 598.158 82.9407Z" fill="#F2F9D9"/>
<path d="M590.921 143.224C583.876 155.017 578.193 163.615 578.193 163.615C578.193 163.615 572.509 155.017 565.465 143.224C539.671 145.157 520.417 152.806 520.417 161.949C520.417 172.55 546.282 181.137 578.193 181.137C610.103 181.137 635.969 172.55 635.969 161.949C635.969 152.806 616.702 145.157 590.921 143.224Z" fill="#E5E5E5"/>
<path d="M737.058 214.363C731.363 214.34 725.86 215.381 720.549 217.476C715.251 219.571 710.519 222.568 706.376 226.468C706.075 226.758 705.931 227.105 705.931 227.521C705.931 227.926 706.075 228.285 706.376 228.563L710.591 232.776C710.88 233.053 711.229 233.192 711.626 233.192C712.024 233.192 712.361 233.053 712.65 232.776C714.3 231.259 716.082 229.905 717.984 228.713C719.887 227.533 721.874 226.526 723.969 225.716C726.052 224.894 728.208 224.281 730.411 223.864C732.615 223.448 734.843 223.239 737.083 223.239C739.322 223.239 741.55 223.448 743.754 223.864C745.957 224.281 748.113 224.894 750.196 225.716C752.291 226.526 754.278 227.533 756.181 228.713C758.083 229.905 759.865 231.259 761.515 232.776C761.804 233.053 762.141 233.192 762.539 233.192C762.936 233.192 763.285 233.053 763.574 232.776L767.789 228.563C768.09 228.285 768.234 227.926 768.234 227.521C768.234 227.105 768.09 226.758 767.789 226.468C763.634 222.557 758.902 219.559 753.592 217.465C748.281 215.37 742.766 214.34 737.058 214.363Z" fill="white"/>
<path d="M749.57 246.698L753.808 242.474C754.121 242.173 754.266 241.814 754.254 241.386C754.254 240.958 754.085 240.599 753.76 240.31C752.616 239.314 751.4 238.423 750.087 237.636C748.787 236.861 747.426 236.201 746.005 235.669C744.584 235.136 743.127 234.731 741.622 234.454C740.129 234.187 738.624 234.049 737.107 234.049C735.589 234.049 734.072 234.187 732.579 234.454C731.086 234.731 729.629 235.136 728.208 235.669C726.787 236.201 725.414 236.861 724.114 237.636C722.813 238.423 721.585 239.314 720.453 240.31C720.116 240.587 719.947 240.946 719.923 241.374C719.911 241.802 720.056 242.173 720.357 242.474L724.595 246.698C724.86 246.964 725.173 247.114 725.559 247.138C725.932 247.149 726.269 247.045 726.558 246.802C728.027 245.552 729.677 244.592 731.483 243.932C733.301 243.272 735.168 242.937 737.107 242.937C739.033 242.937 740.912 243.272 742.718 243.932C744.536 244.592 746.174 245.552 747.643 246.802C747.932 247.022 748.269 247.126 748.63 247.114C749.004 247.091 749.317 246.952 749.57 246.698Z" fill="white"/>
<path d="M737.058 252.021C735.746 252.021 734.53 252.345 733.398 253.005C732.988 253.26 732.759 253.618 732.699 254.093C732.639 254.567 732.784 254.972 733.121 255.308L736.023 258.213C736.312 258.491 736.661 258.629 737.058 258.629C737.468 258.629 737.805 258.491 738.094 258.213L740.996 255.308C741.333 254.972 741.478 254.567 741.417 254.093C741.357 253.618 741.128 253.26 740.719 253.005C739.587 252.345 738.371 252.021 737.058 252.021Z" fill="white"/>
</svg>
